
<svg width="163" height="163" viewBox="0 0 163 163" fill="none" xmlns="http://www.w3.org/2000/svg">
<path d="M156.208 121.639C156.344 126.732 154.986 131.555 152.541 135.697C151.182 138.142 149.349 140.384 147.311 142.218C142.625 146.564 136.444 149.213 129.585 149.417C119.669 149.621 110.908 144.527 106.086 136.716C103.505 132.709 101.943 127.887 101.875 122.794C101.671 114.236 105.474 106.493 111.587 101.4C116.205 97.5963 122.046 95.2193 128.43 95.0834C143.44 94.7438 155.869 106.629 156.208 121.639Z" stroke="#E26F6F" stroke-width="10" stroke-miterlimit="10" stroke-linecap="round" stroke-linejoin="round"/>
<path d="M118.447 122.454L125.306 128.974L139.501 115.254" stroke="#E26F6F" stroke-width="10" stroke-linecap="round" stroke-linejoin="round"/>
<path d="M21.5297 50.53L81.5 85.2353L141.063 50.7336" stroke="#E26F6F" stroke-width="10" stroke-linecap="round" stroke-linejoin="round"/>
<path d="M81.5 146.768V85.1673" stroke="#E26F6F" stroke-width="10" stroke-linecap="round" stroke-linejoin="round"/>
<path d="M146.768 62.2795V100.721C146.768 101.06 146.768 101.332 146.7 101.671C141.946 97.5282 135.833 95.0834 129.042 95.0834C122.657 95.0834 116.749 97.3247 112.062 101.06C105.814 106.018 101.875 113.693 101.875 122.25C101.875 127.344 103.301 132.166 105.814 136.241C106.425 137.328 107.172 138.346 107.987 139.297L95.5588 146.157C87.8163 150.504 75.1837 150.504 67.4412 146.157L31.1737 126.053C22.9558 121.503 16.2322 110.093 16.2322 100.721V62.2795C16.2322 52.907 22.9558 41.4972 31.1737 36.9468L67.4412 16.8433C75.1837 12.4966 87.8163 12.4966 95.5588 16.8433L131.826 36.9468C140.044 41.4972 146.768 52.907 146.768 62.2795Z" stroke="#E26F6F" stroke-width="10" stroke-linecap="round" stroke-linejoin="round"/>
</svg>
